<?xml version="1.0" encoding="UTF-8"?> <svg xmlns="http://www.w3.org/2000/svg" id="Layer_2" data-name="Layer 2" viewBox="0 0 334.7 89.52"><defs><style> .cls-1 { fill: #30404a; } .cls-2 { fill: #fcbf10; } </style></defs><g id="Layer_1-2" data-name="Layer 1"><g><rect class="cls-2" x="41.36" y="0" width="2.27" height="25.52"></rect><rect class="cls-2" x="41.36" y="59.46" width="2.27" height="25.52"></rect><polygon class="cls-2" points="36.23 .45 40.66 25.58 38.43 25.97 34 .84 36.23 .45"></polygon><polygon class="cls-2" points="46.55 59.01 50.98 84.14 48.75 84.53 44.32 59.4 46.55 59.01"></polygon><polygon class="cls-2" points="29.02 2.18 37.75 26.16 35.62 26.93 26.9 2.95 29.02 2.18"></polygon><polygon class="cls-2" points="49.35 58.05 58.08 82.03 55.96 82.8 47.23 58.82 49.35 58.05"></polygon><polygon class="cls-2" points="22.22 5.13 34.98 27.23 33.03 28.35 20.27 6.25 22.22 5.13"></polygon><polygon class="cls-2" points="51.95 56.62 64.71 78.72 62.76 79.85 50 57.75 51.95 56.62"></polygon><rect class="cls-2" x="22.25" y="6.96" width="2.26" height="25.52" transform="translate(-7.2 19.64) rotate(-40)"></rect><rect class="cls-2" x="60.47" y="52.5" width="2.26" height="25.52" transform="translate(-27.54 54.86) rotate(-40)"></rect><polygon class="cls-2" points="10.67 14.31 30.21 30.71 28.76 32.45 9.22 16.04 10.67 14.31"></polygon><polygon class="cls-2" points="56.21 52.53 75.76 68.93 74.31 70.67 54.76 54.26 56.21 52.53"></polygon><polygon class="cls-2" points="6.26 20.27 28.36 33.03 27.23 34.98 5.13 22.22 6.26 20.27"></polygon><polygon class="cls-2" points="57.75 50 79.85 62.76 78.72 64.71 56.62 51.95 57.75 50"></polygon><polygon class="cls-2" points="2.95 26.9 26.93 35.62 26.16 37.75 2.18 29.02 2.95 26.9"></polygon><polygon class="cls-2" points="58.82 47.23 82.8 55.96 82.03 58.08 58.05 49.35 58.82 47.23"></polygon><polygon class="cls-2" points=".84 34 25.97 38.43 25.58 40.66 .45 36.23 .84 34"></polygon><polygon class="cls-2" points="59.4 44.32 84.53 48.75 84.14 50.98 59.01 46.55 59.4 44.32"></polygon><path class="cls-2" d="M84.98,43.62H2.27c-1.25,0-2.27-1.01-2.27-2.27h82.71c1.25,0,2.27,1.01,2.27,2.27"></path><rect class="cls-2" x="6.96" y="60.47" width="25.52" height="2.26" transform="translate(-34.98 27.08) rotate(-40)"></rect><rect class="cls-2" x="52.5" y="22.25" width="25.52" height="2.26" transform="translate(.24 47.42) rotate(-40)"></rect><polygon class="cls-2" points="14.31 74.31 30.71 54.76 32.45 56.21 16.04 75.76 14.31 74.31"></polygon><polygon class="cls-2" points="52.53 28.76 68.93 9.22 70.67 10.67 54.26 30.21 52.53 28.76"></polygon><polygon class="cls-2" points="20.27 78.72 33.03 56.62 34.98 57.75 22.22 79.85 20.27 78.72"></polygon><polygon class="cls-2" points="50 27.23 62.76 5.13 64.71 6.25 51.95 28.35 50 27.23"></polygon><polygon class="cls-2" points="26.9 82.03 35.62 58.05 37.75 58.82 29.02 82.8 26.9 82.03"></polygon><polygon class="cls-2" points="47.23 26.16 55.96 2.18 58.08 2.95 49.36 26.93 47.23 26.16"></polygon><polygon class="cls-2" points="34 84.14 38.43 59.01 40.66 59.4 36.23 84.53 34 84.14"></polygon><polygon class="cls-2" points="44.32 25.58 48.75 .45 50.98 .84 46.55 25.97 44.32 25.58"></polygon><path class="cls-1" d="M109.03,57.75h-9.28l-1.77,4.28h-4.74l8.91-19.98h4.57l8.94,19.98h-4.85l-1.77-4.28ZM107.58,54.24l-3.17-7.65-3.17,7.65h6.34Z"></path><rect class="cls-1" x="116.99" y="40.85" width="4.45" height="21.18"></rect><rect class="cls-1" x="124.59" y="52.21" width="8.08" height="3.57"></rect><path class="cls-1" d="M134.49,60.06l1.57-3.48c1.68,1.23,4.2,2.08,6.59,2.08,2.74,0,3.85-.91,3.85-2.14,0-3.74-11.62-1.17-11.62-8.59,0-3.4,2.74-6.22,8.42-6.22,2.51,0,5.08.6,6.94,1.77l-1.43,3.51c-1.86-1.06-3.77-1.57-5.54-1.57-2.74,0-3.8,1.03-3.8,2.28,0,3.68,11.62,1.14,11.62,8.48,0,3.34-2.77,6.19-8.48,6.19-3.17,0-6.37-.94-8.14-2.31"></path><path class="cls-1" d="M152.39,54.35c0-4.62,3.57-7.91,8.45-7.91s8.42,3.28,8.42,7.91-3.54,7.91-8.42,7.91-8.45-3.28-8.45-7.91M164.75,54.35c0-2.66-1.68-4.25-3.91-4.25s-3.94,1.6-3.94,4.25,1.71,4.25,3.94,4.25,3.91-1.6,3.91-4.25"></path><path class="cls-1" d="M188.52,54.35c0,4.82-3.34,7.91-7.65,7.91-2.06,0-3.71-.66-4.82-2v1.77h-4.25v-21.18h4.45v7.45c1.14-1.26,2.71-1.86,4.62-1.86,4.31,0,7.65,3.08,7.65,7.91M184.02,54.35c0-2.66-1.68-4.25-3.91-4.25s-3.91,1.6-3.91,4.25,1.68,4.25,3.91,4.25,3.91-1.6,3.91-4.25"></path><path class="cls-1" d="M206.77,53.24v8.79h-4.45v-8.11c0-2.48-1.14-3.62-3.11-3.62-2.14,0-3.68,1.31-3.68,4.14v7.59h-4.45v-21.18h4.45v7.42c1.2-1.2,2.91-1.83,4.88-1.83,3.62,0,6.37,2.11,6.37,6.79"></path><polygon class="cls-1" points="236.65 42.05 236.65 62.03 232.03 62.03 232.03 53.84 222.95 53.84 222.95 62.03 218.33 62.03 218.33 42.05 222.95 42.05 222.95 49.93 232.03 49.93 232.03 42.05 236.65 42.05"></polygon><path class="cls-1" d="M239.51,54.35c0-4.62,3.57-7.91,8.45-7.91s8.42,3.28,8.42,7.91-3.54,7.91-8.42,7.91-8.45-3.28-8.45-7.91M251.86,54.35c0-2.66-1.68-4.25-3.91-4.25s-3.94,1.6-3.94,4.25,1.71,4.25,3.94,4.25,3.91-1.6,3.91-4.25"></path><path class="cls-1" d="M257.43,60.61l1.48-3.2c1.37.89,3.45,1.49,5.34,1.49,2.06,0,2.83-.54,2.83-1.4,0-2.51-9.28.06-9.28-6.08,0-2.91,2.63-4.97,7.11-4.97,2.11,0,4.45.49,5.91,1.34l-1.49,3.17c-1.51-.86-3.03-1.14-4.42-1.14-2,0-2.85.63-2.85,1.43,0,2.63,9.28.09,9.28,6.14,0,2.85-2.65,4.88-7.25,4.88-2.6,0-5.22-.71-6.65-1.66"></path><path class="cls-1" d="M290.37,54.35c0,4.82-3.34,7.91-7.65,7.91-1.91,0-3.48-.6-4.62-1.86v7.17h-4.45v-20.9h4.25v1.77c1.11-1.34,2.77-2,4.82-2,4.31,0,7.65,3.08,7.65,7.91M285.86,54.35c0-2.66-1.68-4.25-3.91-4.25s-3.91,1.6-3.91,4.25,1.68,4.25,3.91,4.25,3.91-1.6,3.91-4.25"></path><path class="cls-1" d="M292.37,42.05c0-1.4,1.11-2.48,2.77-2.48s2.77,1.03,2.77,2.4c0,1.49-1.11,2.57-2.77,2.57s-2.77-1.08-2.77-2.48M292.91,46.68h4.45v15.36h-4.45v-15.36Z"></path><path class="cls-1" d="M310.98,61.29c-.91.66-2.26.97-3.62.97-3.63,0-5.74-1.86-5.74-5.51v-6.31h-2.37v-3.43h2.37v-3.74h4.45v3.74h3.83v3.43h-3.83v6.25c0,1.31.71,2.03,1.91,2.03.66,0,1.31-.2,1.8-.57l1.2,3.14Z"></path><path class="cls-1" d="M326.65,53.27v8.76h-4.17v-1.91c-.83,1.4-2.43,2.14-4.68,2.14-3.6,0-5.74-2-5.74-4.65s1.91-4.6,6.59-4.6h3.54c0-1.91-1.14-3.03-3.54-3.03-1.63,0-3.31.54-4.42,1.43l-1.6-3.11c1.68-1.2,4.17-1.86,6.62-1.86,4.68,0,7.39,2.17,7.39,6.82M322.2,57.18v-1.57h-3.06c-2.08,0-2.74.77-2.74,1.8,0,1.11.94,1.86,2.51,1.86,1.48,0,2.77-.68,3.28-2.08"></path><rect class="cls-1" x="330.25" y="40.85" width="4.45" height="21.18"></rect><path class="cls-1" d="M122.03,83.31l1.82-2.1c1.12,1.01,2.55,1.6,4.06,1.68,1.26,0,1.96-.56,1.96-1.26,0-.84-.42-1.12-2.8-1.82-2.8-.7-4.62-1.54-4.62-4.2,0-2.52,1.96-4.2,4.9-4.2,1.88,0,3.71.64,5.18,1.82l-1.54,2.24c-1.04-.82-2.31-1.31-3.64-1.4-1.26,0-1.82.56-1.82,1.26,0,.84.56,1.26,2.94,1.82,2.8.7,4.34,1.68,4.34,4.2,0,2.8-2.1,4.34-5.04,4.34-2.14-.07-4.18-.92-5.74-2.38Z"></path><path class="cls-1" d="M143.43,75.76c-1.05-.81-2.34-1.2-3.65-1.11-1.4-.07-2.8.22-4.04.83l.7,2.23c.94-.33,1.92-.5,2.93-.55,1.55,0,2.25.7,2.25,1.97v.26c-.81-.31-1.66-.44-2.53-.42-2.36,0-4.19.98-4.19,3.36,0,.09,0,.17.02.26.13,1.77,1.7,3.1,3.47,2.95,1.24.09,2.45-.44,3.23-1.4v1.14h2.93v-6.16c.11-1.22-.31-2.45-1.11-3.36M141.75,81.63c0,.07-.02.15-.04.22-.24,1.05-1.29,1.7-2.34,1.46-.98,0-1.68-.44-1.68-1.27s.85-1.4,2.1-1.4c.68-.02,1.35.11,1.97.42v.57Z"></path><path class="cls-1" d="M147.35,81.63v-6.86h2.94v5.88c0,1.4.7,2.1,1.82,2.1s1.82-.7,1.82-2.1v-5.88h2.94v10.63h-2.94v-1.54c-.69,1.03-1.84,1.66-3.08,1.68-1.93.01-3.51-1.54-3.52-3.47,0-.15,0-.3.03-.45h0Z"></path><path class="cls-1" d="M167.78,71v5.18c-.85-.98-2.07-1.53-3.36-1.55-2.53,0-4.76,1.83-4.76,5.46s2.25,5.46,4.76,5.46c1.33.07,2.62-.57,3.36-1.68v1.55h2.93v-14.42h-2.93ZM167.76,80.08c.09,1.51-1.03,2.8-2.51,2.95-.07,0-.13-.02-.22-.02-1.33-.15-2.31-1.29-2.31-2.6,0-.11,0-.22.02-.33-.04-.24-.04-.5,0-.74.22-1.4,1.51-2.36,2.9-2.14,1.38.2,2.34,1.51,2.14,2.88h-.02Z"></path><rect class="cls-1" x="173.79" y="70.86" width="3.22" height="2.66"></rect><rect class="cls-1" x="173.79" y="74.77" width="2.94" height="10.63"></rect><path class="cls-1" d="M185.82,78.41h0c-.02-3.93,3.15-7.12,7.08-7.14h.2c2.01-.09,3.96.62,5.46,1.96l-1.96,2.38c-.99-.91-2.29-1.41-3.64-1.4-2.26.1-4.02,2.01-3.92,4.27,0,.02,0,.05,0,.07-.15,2.24,1.55,4.18,3.79,4.33.14,0,.27.01.4,0,1,.05,1.99-.25,2.8-.84v-1.96h-3.08v-2.66h6.02v5.88c-1.61,1.46-3.7,2.26-5.87,2.24-3.79.23-7.04-2.66-7.27-6.44-.01-.23-.02-.46,0-.69h0Z"></path><path class="cls-1" d="M211.71,80.24c0-2.95-1.68-5.74-5.18-5.74h-.24c-2.9.2-5.11,2.69-4.94,5.59v.26c.02,2.9,2.4,5.24,5.31,5.2,1.68.09,3.3-.63,4.35-1.96l-1.68-1.53c-.63.74-1.55,1.14-2.51,1.11-1.27.07-2.36-.85-2.53-2.1h7.43v-.83ZM204.43,79.25c0-1.24,1-2.25,2.23-2.25s2.25,1,2.25,2.25h-4.48Z"></path><path class="cls-1" d="M214.36,74.77h2.94v2.1c.45-1.46,1.83-2.44,3.36-2.38v3.22h-.14c-1.96,0-3.22,1.26-3.22,3.78v3.92h-2.94v-10.63Z"></path><path class="cls-1" d="M222.9,74.77h2.94v1.54c.69-1.03,1.84-1.66,3.08-1.68,1.23-.09,2.4.57,2.94,1.68.85-1.07,2.14-1.68,3.5-1.68,1.91-.11,3.55,1.35,3.66,3.27.01.22,0,.43-.03.65v6.86h-3.08v-5.88c0-1.4-.7-2.1-1.82-2.1s-1.82.7-1.82,2.1v5.88h-2.94v-5.88c0-1.4-.7-2.1-1.82-2.1s-1.82.7-1.82,2.1v5.88h-2.94v-10.63h.14Z"></path><path class="cls-1" d="M249.75,75.76c-1.03-.81-2.32-1.2-3.63-1.11-1.4-.07-2.8.22-4.06.83l.7,2.23c.94-.33,1.94-.5,2.95-.55,1.53,0,2.23.7,2.23,1.97v.26c-.81-.31-1.66-.44-2.51-.42-2.38,0-4.19.98-4.19,3.36v.26c.15,1.77,1.7,3.1,3.49,2.95,1.22.09,2.42-.44,3.21-1.4v1.14h2.95v-6.16c.09-1.22-.31-2.45-1.14-3.36M248.09,81.63c0,.98-.85,1.81-2.38,1.68-.98,0-1.68-.44-1.68-1.27s.83-1.4,2.1-1.4c.68-.02,1.35.11,1.97.42v.57Z"></path><path class="cls-1" d="M253.82,74.77h3.08v1.54c.69-1.03,1.84-1.66,3.08-1.68,1.95-.07,3.58,1.44,3.66,3.39,0,.17,0,.35-.02.53v6.86h-2.94v-5.88c0-1.4-.7-2.1-1.82-2.1-.97-.11-1.84.58-1.96,1.54-.02.14-.02.28,0,.42v5.88h-2.94v-10.49h-.14Z"></path><polygon class="cls-1" points="273.26 71.56 274.8 71.56 274.8 77.71 282.78 77.71 282.78 71.56 284.31 71.56 284.31 85.41 282.78 85.41 282.78 79.11 274.8 79.11 274.8 85.27 273.26 85.27 273.26 71.56 273.26 71.56"></polygon><path class="cls-1" d="M297.47,80.5c0-3.06-1.68-5.44-4.76-5.44h-.09c-2.8.13-4.96,2.51-4.81,5.31-.02.11-.02.24-.02.35.02,2.77,2.29,4.98,5.04,4.96,1.64.04,3.19-.68,4.22-1.94l-.98-.85c-.83.92-2.01,1.42-3.23,1.4-.02.02-.04.02-.09.02-1.83.04-3.34-1.4-3.41-3.23h8.12v-.57ZM289.22,79.67c.02-1.88,1.49-3.41,3.36-3.49,1.84.11,3.25,1.66,3.21,3.49h-6.57Z"></path><path class="cls-1" d="M307.54,76.04c-.94-.77-2.14-1.16-3.36-1.14-1.31-.02-2.6.26-3.78.85l.44,1.24c.96-.46,2.01-.7,3.08-.7,1.94,0,3.06.98,3.06,2.82v.26c-.98-.31-2.03-.44-3.06-.42-2.53,0-4.35,1.11-4.35,3.36,0,2.1,1.81,3.21,3.91,3.08,1.42.04,2.75-.59,3.65-1.68v1.53h1.53v-6.29c.04-1.09-.35-2.14-1.11-2.93M306.97,81.63c0,1.53-1.53,2.64-3.34,2.8h-.26c-1.18,0-2.18-.89-2.27-2.1,0-1.27.98-2.1,2.95-2.1.98-.04,1.99.09,2.93.42v.98Z"></path><rect class="cls-1" x="312.16" y="70.86" width="1.54" height="14.41"></rect><path class="cls-1" d="M318.03,82.61v-6.16h-1.4v-1.4h1.4v-3.08h1.54v3.08h3.22v1.4h-3.22v6.02c-.11.81.45,1.56,1.26,1.68.14.02.28.02.42,0,.54,0,1.07-.15,1.54-.42v1.26c-.56.28-1.19.43-1.82.42-1.35.26-2.66-.62-2.92-1.97-.05-.27-.06-.55-.02-.83h0Z"></path><path class="cls-1" d="M325.73,70.86h1.54v6.02c.69-1.27,2.05-2.03,3.5-1.96,2.04-.12,3.8,1.43,3.93,3.47.01.19,0,.39-.01.58v6.3h-1.54v-6.02c0-1.96-.98-3.08-2.8-3.08-1.64-.06-3.02,1.22-3.09,2.87,0,.12,0,.23,0,.35v5.87h-1.54v-14.41h0Z"></path><path class="cls-1" d="M97.03,85.73h-3.78v-14.4h3.23c3.72,0,5.57,1.22,5.57,3.66,0,1.6-.64,2.69-1.91,3.25,1.65.52,2.47,1.69,2.47,3.52,0,1.44-.48,2.46-1.44,3.07-.96.6-2.34.91-4.14.91M94.71,72.63v5.18h3c1.91,0,2.86-.89,2.86-2.67,0-.96-.35-1.62-1.04-1.98-.69-.36-1.7-.54-3.03-.54h-1.79ZM94.71,79.01v5.43h2.24c1.4,0,2.44-.19,3.13-.56.69-.38,1.04-1.09,1.04-2.13,0-1.82-1.15-2.74-3.46-2.74h-2.96Z"></path><path class="cls-1" d="M110.44,85.42c-1.29,2.25-2.93,3.61-4.94,4.09l-.29-1.25c1.56-.37,2.79-1.3,3.68-2.78-2.13-3.18-3.42-6.56-3.89-10.12h1.44c.4,2.96,1.47,5.94,3.23,8.95,1.56-2.96,2.54-5.95,2.94-8.95h1.44c-.44,3.21-1.65,6.56-3.62,10.06"></path></g></g></svg> 